<svg width="104" height="108" viewBox="0 0 104 108" fill="none" xmlns="http://www.w3.org/2000/svg">
<path d="M94 86.9783C94 84.4364 90.3207 83.3057 88.6206 85.1954C83.7539 90.6044 77.66 94.8331 70.7979 97.4936C61.0956 101.255 50.4144 101.666 40.4518 98.6613C30.4892 95.6562 21.8167 89.4076 15.8127 80.9084C9.80869 72.4092 6.81761 62.1471 7.31483 51.753C7.81204 41.3589 11.769 31.4292 18.5569 23.5419C25.3448 15.6546 34.5741 10.2623 44.7781 8.22199C54.982 6.18164 65.5752 7.61031 74.8741 12.281C83.586 16.6567 90.6935 23.6428 95.2203 32.2403C95.7892 33.3207 96.8426 34.0748 98.0575 34.1974C100.643 34.4582 102.569 31.9051 101.382 29.5935C96.9617 20.9864 90.2639 13.7096 81.972 8.58656C72.0654 2.46595 60.4279 -0.244186 48.8365 0.869993C37.2452 1.98417 26.337 6.86144 17.7777 14.757C9.21839 22.6526 3.47842 33.1325 1.43429 44.5965C-0.609838 56.0605 1.15421 67.8785 6.45707 78.2458C11.7599 88.6131 20.3101 96.9599 30.8021 102.012C41.294 107.064 53.151 108.543 64.5625 106.223C75.2579 104.049 85.0111 98.6507 92.5221 90.7802C93.4958 89.7599 94 88.3887 94 86.9783Z" fill="#717171"/>
<path d="M70.6667 76.8665C70.2914 76.8622 69.9195 76.7946 69.5667 76.6665C59.4898 73.1322 48.5102 73.1322 38.4333 76.6665C37.5979 76.9582 36.6808 76.9061 35.8838 76.5217C35.0867 76.1373 34.4751 75.4519 34.1833 74.6165C33.8916 73.7811 33.9437 72.864 34.3281 72.0669C34.7126 71.2699 35.3979 70.6582 36.2333 70.3665C47.7346 66.3342 60.2654 66.3342 71.7667 70.3665C72.525 70.6153 73.1689 71.1279 73.5813 71.8112C73.9937 72.4944 74.1473 73.303 74.0141 74.0899C73.881 74.8768 73.4699 75.5898 72.8556 76.0993C72.2413 76.6089 71.4646 76.8811 70.6667 76.8665Z" fill="#717171"/>
<path d="M34.3333 48.6667C33.4493 48.6667 32.6014 48.3155 31.9763 47.6904C31.3512 47.0652 31 46.2174 31 45.3333V35.3333C31 34.4493 31.3512 33.6014 31.9763 32.9763C32.6014 32.3512 33.4493 32 34.3333 32C35.2174 32 36.0652 32.3512 36.6904 32.9763C37.3155 33.6014 37.6667 34.4493 37.6667 35.3333V45.3333C37.6667 46.2174 37.3155 47.0652 36.6904 47.6904C36.0652 48.3155 35.2174 48.6667 34.3333 48.6667Z" fill="#717171"/>
<path d="M104 53.9998C104 44.795 96.5381 37.3331 87.3333 37.3331H87C86.174 33.2863 83.8747 29.6904 80.548 27.2425C77.2214 24.7946 73.1043 23.6691 68.9949 24.0842C64.8856 24.4993 61.0768 26.4255 58.3069 29.4893C55.537 32.5531 54.0034 36.5362 54.0034 40.6665C54.0034 44.7967 55.537 48.7799 58.3069 51.8436C61.0768 54.9074 64.8856 56.8336 68.9949 57.2487C73.1043 57.6639 77.2214 56.5384 80.548 54.0905C83.8747 51.6425 86.174 48.0466 87 43.9998H87.3333C92.8562 43.9998 97.3333 48.4769 97.3333 53.9998V104C97.3333 104.884 97.6845 105.732 98.3096 106.357C98.9348 106.982 99.7826 107.333 100.667 107.333C101.551 107.333 102.399 106.982 103.024 106.357C103.649 105.732 104 104.884 104 104V53.9998ZM70.6667 50.6665C68.6889 50.6665 66.7555 50.08 65.111 48.9812C63.4665 47.8823 62.1847 46.3206 61.4279 44.4933C60.671 42.666 60.473 40.6554 60.8588 38.7156C61.2447 36.7757 62.1971 34.9939 63.5956 33.5954C64.9941 32.1969 66.776 31.2445 68.7158 30.8586C70.6556 30.4728 72.6662 30.6708 74.4935 31.4277C76.3208 32.1845 77.8826 33.4663 78.9814 35.1108C80.0802 36.7553 80.6667 38.6886 80.6667 40.6665C80.6667 43.3186 79.6131 45.8622 77.7377 47.7375C75.8624 49.6129 73.3188 50.6665 70.6667 50.6665Z" fill="#F07F1B"/>
</svg>
